<svg width="404" height="228" viewBox="0 0 404 228" fill="none" xmlns="http://www.w3.org/2000/svg">
<path d="M54.28 180.68C43.56 180.68 33.24 179.32 23.32 176.6C13.56 173.72 5.8 170.28 0.0400004 166.28L11.56 143.48C17.32 147.16 24.2 150.2 32.2 152.6C40.2 155 48.2 156.2 56.2 156.2C65.64 156.2 72.44 154.92 76.6 152.36C80.92 149.8 83.08 146.36 83.08 142.04C83.08 138.52 81.64 135.88 78.76 134.12C75.88 132.2 72.12 130.76 67.48 129.8C62.84 128.84 57.64 127.96 51.88 127.16C46.28 126.36 40.6 125.32 34.84 124.04C29.24 122.6 24.12 120.6 19.48 118.04C14.84 115.32 11.08 111.72 8.2 107.24C5.32 102.76 3.88 96.84 3.88 89.48C3.88 81.32 6.2 74.28 10.84 68.36C15.48 62.28 21.96 57.64 30.28 54.44C38.76 51.08 48.76 49.4 60.28 49.4C68.92 49.4 77.64 50.36 86.44 52.28C95.24 54.2 102.52 56.92 108.28 60.44L96.76 83.24C90.68 79.56 84.52 77.08 78.28 75.8C72.2 74.36 66.12 73.64 60.04 73.64C50.92 73.64 44.12 75 39.64 77.72C35.32 80.44 33.16 83.88 33.16 88.04C33.16 91.88 34.6 94.76 37.48 96.68C40.36 98.6 44.12 100.12 48.76 101.24C53.4 102.36 58.52 103.32 64.12 104.12C69.88 104.76 75.56 105.8 81.16 107.24C86.76 108.68 91.88 110.68 96.52 113.24C101.32 115.64 105.16 119.08 108.04 123.56C110.92 128.04 112.36 133.88 112.36 141.08C112.36 149.08 109.96 156.04 105.16 161.96C100.52 167.88 93.88 172.52 85.24 175.88C76.6 179.08 66.28 180.68 54.28 180.68ZM162.676 150.44L163.396 112.76L230.356 50.84H266.356L209.476 107.96L193.636 121.16L162.676 150.44ZM138.196 179V0.91999H168.196V179H138.196ZM234.916 179L188.116 121.16L207.076 97.16L271.396 179H234.916ZM294.068 227.24C287.828 227.24 281.588 226.2 275.348 224.12C269.108 222.04 263.908 219.16 259.748 215.48L271.748 193.4C274.788 196.12 278.228 198.28 282.068 199.88C285.908 201.48 289.828 202.28 293.828 202.28C299.268 202.28 303.668 200.92 307.028 198.2C310.388 195.48 313.508 190.92 316.388 184.52L323.828 167.72L326.228 164.12L374.708 50.84H403.508L343.508 189.32C339.508 198.92 335.028 206.52 330.068 212.12C325.268 217.72 319.828 221.64 313.748 223.88C307.828 226.12 301.268 227.24 294.068 227.24ZM320.468 183.56L262.628 50.84H293.828L340.868 161.48L320.468 183.56Z" fill="url(#paint0_linear_1_3)" style="mix-blend-mode:darken"/>
<path d="M23.32 176.6L23.037 177.559L23.0463 177.562L23.0556 177.564L23.32 176.6ZM0.0400004 166.28L-0.85254 165.829L-1.24475 166.605L-0.530395 167.101L0.0400004 166.28ZM11.56 143.48L12.0984 142.637L11.1663 142.042L10.6675 143.029L11.56 143.48ZM32.2 152.6L32.4873 151.642L32.4873 151.642L32.2 152.6ZM76.6 152.36L76.0902 151.5L76.083 151.504L76.0759 151.508L76.6 152.36ZM78.76 134.12L78.2053 134.952L78.2217 134.963L78.2386 134.973L78.76 134.12ZM51.88 127.16L51.7386 128.15L51.7424 128.15L51.88 127.16ZM34.84 124.04L34.591 125.008L34.607 125.013L34.6231 125.016L34.84 124.04ZM19.48 118.04L18.9743 118.903L18.9855 118.909L18.9969 118.916L19.48 118.04ZM10.84 68.36L11.6271 68.9769L11.635 68.9667L10.84 68.36ZM30.28 54.44L30.639 55.3734L30.6484 55.3697L30.28 54.44ZM86.44 52.28L86.2268 53.257L86.2268 53.257L86.44 52.28ZM108.28 60.44L109.173 60.891L109.589 60.0677L108.801 59.5867L108.28 60.44ZM96.76 83.24L96.2422 84.0955L97.1657 84.6545L97.6525 83.691L96.76 83.24ZM78.28 75.8L78.0495 76.7731L78.0642 76.7766L78.0791 76.7796L78.28 75.8ZM39.64 77.72L39.121 76.8652L39.1141 76.8694L39.1072 76.8738L39.64 77.72ZM37.48 96.68L36.9253 97.512L36.9253 97.512L37.48 96.68ZM48.76 101.24L48.5254 102.212L48.5254 102.212L48.76 101.24ZM64.12 104.12L63.9786 105.11L63.994 105.112L64.0096 105.114L64.12 104.12ZM81.16 107.24L81.409 106.272L81.409 106.272L81.16 107.24ZM96.52 113.24L96.0369 114.116L96.0547 114.125L96.0728 114.134L96.52 113.24ZM105.16 161.96L104.383 161.33L104.378 161.337L104.373 161.343L105.16 161.96ZM85.24 175.88L85.5873 176.818L85.5949 176.815L85.6025 176.812L85.24 175.88ZM54.28 179.68C43.6456 179.68 33.4147 178.331 23.5844 175.636L23.0556 177.564C33.0653 180.309 43.4744 181.68 54.28 181.68V179.68ZM23.603 175.641C13.9036 172.779 6.25268 169.377 0.610396 165.459L-0.530395 167.101C5.34733 171.183 13.2164 174.661 23.037 177.559L23.603 175.641ZM0.932541 166.731L12.4525 143.931L10.6675 143.029L-0.85254 165.829L0.932541 166.731ZM11.0216 144.323C16.8746 148.062 23.8429 151.137 31.9127 153.558L32.4873 151.642C24.5571 149.263 17.7654 146.258 12.0984 142.637L11.0216 144.323ZM31.9127 153.558C40.0017 155.985 48.0985 157.2 56.2 157.2V155.2C48.3015 155.2 40.3983 154.015 32.4873 151.642L31.9127 153.558ZM56.2 157.2C65.6811 157.2 72.7175 155.923 77.1241 153.212L76.0759 151.508C72.1625 153.917 65.5989 155.2 56.2 155.2V157.2ZM77.1098 153.22C81.6751 150.515 84.08 146.776 84.08 142.04H82.08C82.08 145.944 80.1649 149.085 76.0902 151.5L77.1098 153.22ZM84.08 142.04C84.08 138.19 82.4739 135.218 79.2815 133.267L78.2386 134.973C80.8061 136.542 82.08 138.85 82.08 142.04H84.08ZM79.3147 133.288C76.2963 131.276 72.405 129.798 67.6826 128.821L67.2774 130.779C71.8351 131.722 75.4637 133.124 78.2053 134.952L79.3147 133.288ZM67.6826 128.821C63.0169 127.855 57.7947 126.972 52.0176 126.17L51.7424 128.15C57.4853 128.948 62.6631 129.825 67.2774 130.779L67.6826 128.821ZM52.0214 126.17C46.4478 125.374 40.793 124.338 35.0569 123.064L34.6231 125.016C40.407 126.301 46.1122 127.346 51.7386 128.15L52.0214 126.17ZM35.089 123.072C29.5633 121.651 24.5229 119.68 19.9631 117.164L18.9969 118.916C23.7171 121.52 28.9167 123.549 34.591 125.008L35.089 123.072ZM19.9857 117.177C15.4799 114.536 11.8353 111.046 9.04118 106.699L7.35882 107.781C10.3247 112.394 14.2001 116.104 18.9743 118.903L19.9857 117.177ZM9.04118 106.699C6.29739 102.431 4.88 96.7189 4.88 89.48H2.88C2.88 96.9611 4.34261 103.089 7.35882 107.781L9.04118 106.699ZM4.88 89.48C4.88 81.5234 7.137 74.7056 11.6271 68.9769L10.0529 67.7431C5.263 73.8544 2.88 81.1166 2.88 89.48H4.88ZM11.635 68.9667C16.1452 63.0567 22.4627 58.5181 30.639 55.3733L29.921 53.5066C21.4573 56.7619 14.8148 61.5033 10.045 67.7533L11.635 68.9667ZM30.6484 55.3697C38.9847 52.0666 48.8543 50.4 60.28 50.4V48.4C48.6657 48.4 38.5353 50.0934 29.9116 53.5103L30.6484 55.3697ZM60.28 50.4C68.8454 50.4 77.4939 51.3516 86.2268 53.257L86.6532 51.303C77.7861 49.3684 68.9947 48.4 60.28 48.4V50.4ZM86.2268 53.257C94.952 55.1607 102.12 57.8472 107.759 61.2933L108.801 59.5867C102.92 55.9928 95.528 53.2393 86.6532 51.303L86.2268 53.257ZM107.387 59.989L95.8675 82.789L97.6525 83.691L109.173 60.891L107.387 59.989ZM97.2778 82.3845C91.1113 78.6521 84.8451 76.1259 78.4809 74.8204L78.0791 76.7796C84.195 78.0341 90.2487 80.4679 96.2422 84.0955L97.2778 82.3845ZM78.5105 74.8269C72.357 73.3695 66.1997 72.64 60.04 72.64V74.64C66.0403 74.64 72.043 75.3505 78.0495 76.7731L78.5105 74.8269ZM60.04 72.64C50.8554 72.64 43.8346 74.0034 39.121 76.8652L40.159 78.5748C44.4054 75.9966 50.9846 74.64 60.04 74.64V72.64ZM39.1072 76.8738C34.5726 79.7289 32.16 83.4551 32.16 88.04H34.16C34.16 84.3049 36.0674 81.1511 40.1728 78.5662L39.1072 76.8738ZM32.16 88.04C32.16 92.1713 33.7331 95.3839 36.9253 97.512L38.0347 95.8479C35.4669 94.1361 34.16 91.5887 34.16 88.04H32.16ZM36.9253 97.512C39.9322 99.5167 43.8114 101.074 48.5254 102.212L48.9946 100.268C44.4286 99.1658 40.7878 97.6833 38.0347 95.8479L36.9253 97.512ZM48.5254 102.212C53.2011 103.341 58.3528 104.306 63.9786 105.11L64.2614 103.13C58.6872 102.334 53.5989 101.379 48.9946 100.268L48.5254 102.212ZM64.0096 105.114C69.7229 105.749 75.3566 106.78 80.911 108.208L81.409 106.272C75.7634 104.82 70.0371 103.771 64.2304 103.126L64.0096 105.114ZM80.911 108.208C86.4367 109.629 91.4771 111.6 96.0369 114.116L97.0031 112.364C92.2829 109.76 87.0833 107.731 81.409 106.272L80.911 108.208ZM96.0728 114.134C100.713 116.455 104.417 119.773 107.199 124.101L108.881 123.019C105.903 118.387 101.927 114.825 96.9672 112.346L96.0728 114.134ZM107.199 124.101C109.945 128.372 111.36 134.006 111.36 141.08H113.36C113.36 133.754 111.895 127.708 108.881 123.019L107.199 124.101ZM111.36 141.08C111.36 148.863 109.031 155.598 104.383 161.33L105.937 162.59C110.889 156.482 113.36 149.297 113.36 141.08H111.36ZM104.373 161.343C99.8667 167.092 93.389 171.638 84.8776 174.948L85.6025 176.812C94.371 173.402 101.173 168.668 105.947 162.577L104.373 161.343ZM84.8927 174.942C76.3918 178.091 66.1954 179.68 54.28 179.68V181.68C66.3646 181.68 76.8082 180.069 85.5873 176.818L84.8927 174.942ZM162.676 150.44L161.676 150.421L161.63 152.805L163.363 151.167L162.676 150.44ZM163.396 112.76L162.717 112.026L162.404 112.315L162.396 112.741L163.396 112.76ZM230.356 50.84V49.84H229.964L229.677 50.1058L230.356 50.84ZM266.356 50.84L267.064 51.5456L268.763 49.84H266.356V50.84ZM209.476 107.96L210.116 108.728L210.151 108.699L210.184 108.666L209.476 107.96ZM193.636 121.16L192.995 120.392L192.971 120.412L192.949 120.433L193.636 121.16ZM138.196 179H137.196V180H138.196V179ZM138.196 0.91999V-0.0800104H137.196V0.91999H138.196ZM168.196 0.91999H169.196V-0.0800104H168.196V0.91999ZM168.196 179V180H169.196V179H168.196ZM234.916 179L234.138 179.629L234.438 180H234.916V179ZM188.116 121.16L187.331 120.54L186.835 121.167L187.338 121.789L188.116 121.16ZM207.076 97.16L207.862 96.5421L207.078 95.5443L206.291 96.5401L207.076 97.16ZM271.396 179V180H273.453L272.182 178.382L271.396 179ZM163.675 150.459L164.395 112.779L162.396 112.741L161.676 150.421L163.675 150.459ZM164.075 113.494L231.035 51.5742L229.677 50.1058L162.717 112.026L164.075 113.494ZM230.356 51.84H266.356V49.84H230.356V51.84ZM265.647 50.1344L208.767 107.254L210.184 108.666L267.064 51.5456L265.647 50.1344ZM208.835 107.192L192.995 120.392L194.276 121.928L210.116 108.728L208.835 107.192ZM192.949 120.433L161.989 149.713L163.363 151.167L194.323 121.887L192.949 120.433ZM139.196 179V0.91999H137.196V179H139.196ZM138.196 1.91999H168.196V-0.0800104H138.196V1.91999ZM167.196 0.91999V179H169.196V0.91999H167.196ZM168.196 178H138.196V180H168.196V178ZM235.693 178.371L188.893 120.531L187.338 121.789L234.138 179.629L235.693 178.371ZM188.9 121.78L207.86 97.7799L206.291 96.5401L187.331 120.54L188.9 121.78ZM206.289 97.7779L270.609 179.618L272.182 178.382L207.862 96.5421L206.289 97.7779ZM271.396 178H234.916V180H271.396V178ZM275.348 224.12L275.032 225.069L275.032 225.069L275.348 224.12ZM259.748 215.48L258.87 215.002L258.489 215.702L259.086 216.229L259.748 215.48ZM271.748 193.4L272.415 192.655L271.473 191.812L270.87 192.922L271.748 193.4ZM282.068 199.88L282.453 198.957L282.453 198.957L282.068 199.88ZM307.028 198.2L307.657 198.977L307.657 198.977L307.028 198.2ZM316.388 184.52L317.3 184.93L317.302 184.925L316.388 184.52ZM323.828 167.72L322.996 167.165L322.949 167.237L322.914 167.315L323.828 167.72ZM326.228 164.12L327.06 164.675L327.111 164.598L327.147 164.513L326.228 164.12ZM374.708 50.84V49.84H374.048L373.789 50.4465L374.708 50.84ZM403.508 50.84L404.426 51.2376L405.031 49.84H403.508V50.84ZM343.508 189.32L342.59 188.922L342.585 188.935L343.508 189.32ZM330.068 212.12L329.32 211.457L329.314 211.463L329.309 211.469L330.068 212.12ZM313.748 223.88L313.402 222.942L313.394 222.945L313.748 223.88ZM320.468 183.56L319.551 183.96L320.163 185.364L321.203 184.239L320.468 183.56ZM262.628 50.84V49.84H261.101L261.711 51.2395L262.628 50.84ZM293.828 50.84L294.748 50.4487L294.49 49.84H293.828V50.84ZM340.868 161.48L341.603 162.159L342.041 161.684L341.788 161.089L340.868 161.48ZM294.068 226.24C287.941 226.24 281.808 225.219 275.664 223.171L275.032 225.069C281.368 227.181 287.715 228.24 294.068 228.24V226.24ZM275.664 223.171C269.529 221.126 264.453 218.307 260.411 214.731L259.086 216.229C263.363 220.013 268.687 222.954 275.032 225.069L275.664 223.171ZM260.627 215.958L272.627 193.878L270.87 192.922L258.87 215.002L260.627 215.958ZM271.081 194.145C274.206 196.941 277.742 199.161 281.684 200.803L282.453 198.957C278.714 197.399 275.37 195.299 272.415 192.655L271.081 194.145ZM281.684 200.803C285.64 202.452 289.691 203.28 293.828 203.28V201.28C289.965 201.28 286.176 200.508 282.453 198.957L281.684 200.803ZM293.828 203.28C299.437 203.28 304.077 201.875 307.657 198.977L306.399 197.423C303.259 199.965 299.1 201.28 293.828 201.28V203.28ZM307.657 198.977C311.192 196.116 314.391 191.394 317.3 184.93L315.476 184.11C312.625 190.446 309.584 194.844 306.399 197.423L307.657 198.977ZM317.302 184.925L324.742 168.125L322.914 167.315L315.474 184.115L317.302 184.925ZM324.66 168.275L327.06 164.675L325.396 163.565L322.996 167.165L324.66 168.275ZM327.147 164.513L375.627 51.2334L373.789 50.4465L325.309 163.727L327.147 164.513ZM374.708 51.84H403.508V49.84H374.708V51.84ZM402.591 50.4424L342.591 188.922L344.426 189.718L404.426 51.2376L402.591 50.4424ZM342.585 188.935C338.612 198.47 334.184 205.965 329.32 211.457L330.817 212.783C335.872 207.075 340.404 199.37 344.431 189.705L342.585 188.935ZM329.309 211.469C324.604 216.958 319.301 220.768 313.402 222.942L314.094 224.818C320.355 222.512 325.932 218.482 330.827 212.771L329.309 211.469ZM313.394 222.945C307.602 225.136 301.164 226.24 294.068 226.24V228.24C301.373 228.24 308.055 227.104 314.102 224.815L313.394 222.945ZM321.385 183.16L263.545 50.4405L261.711 51.2395L319.551 183.96L321.385 183.16ZM262.628 51.84H293.828V49.84H262.628V51.84ZM292.908 51.2313L339.948 161.871L341.788 161.089L294.748 50.4487L292.908 51.2313ZM340.134 160.801L319.734 182.881L321.203 184.239L341.603 162.159L340.134 160.801Z" fill="url(#paint1_angular_1_3)" fill-opacity="0.72"/>
<defs>
<linearGradient id="paint0_linear_1_3" x1="141.61" y1="93" x2="461.512" y2="311.849" gradientUnits="userSpaceOnUse">
<stop stop-color="#028AD7"/>
<stop offset="1" stop-color="#009EF7" stop-opacity="0"/>
</linearGradient>
<radialGradient id="paint1_angular_1_3" cx="0" cy="0" r="1" gradientUnits="userSpaceOnUse" gradientTransform="translate(230.5 93) rotate(90) scale(147 235.5)">
<stop offset="0.340523" stop-color="#3980EB" stop-opacity="0"/>
<stop offset="0.862995" stop-color="#3980EB"/>
</radialGradient>
</defs>
</svg>
